<svg width="22" height="17" viewBox="0 0 22 17" fill="none" xmlns="http://www.w3.org/2000/svg">
<path d="M20.8057 8.45436H16.624C16.4025 8.45436 16.223 8.2732 16.223 8.04946V8.00788C16.223 6.16161 17.7104 4.65985 19.539 4.65985C19.6998 4.65985 19.8449 4.75588 19.9087 4.90536L21.1755 7.88998C21.2284 8.01471 21.2157 8.15826 21.1411 8.2721C21.0666 8.38594 20.941 8.45535 20.8057 8.45436ZM17.0515 7.6436H20.1968L19.2801 5.48353C18.1359 5.6053 17.2182 6.49428 17.0515 7.6436Z" fill="#FF3366" stroke="#FF3366" stroke-width="0.3"/>
<path d="M20.806 11.5391H19.2617C19.0402 11.5391 18.8607 11.3579 18.8607 11.1332V9.57403C18.8607 9.3503 19.0401 9.16913 19.2617 9.16913H20.806C20.9129 9.16913 21.0148 9.2117 21.0903 9.28792C21.1648 9.36415 21.208 9.4671 21.208 9.57402V11.1332C21.208 11.2411 21.1648 11.344 21.0903 11.4203C21.0148 11.4965 20.9129 11.5391 20.806 11.5391ZM19.6637 10.7283H20.404V9.97992H19.6637V10.7283Z" fill="#FF3366" stroke="#FF3366" stroke-width="0.3"/>
<path d="M17.1115 10.3541H16.1369C15.9153 10.3541 15.7358 10.173 15.7358 9.94824C15.7358 9.72451 15.9153 9.54333 16.1369 9.54333H17.1124C17.334 9.54333 17.5144 9.7245 17.5144 9.94824C17.5144 10.173 17.334 10.3541 17.1124 10.3541H17.1115Z" fill="#FF3366" stroke="#FF3366" stroke-width="0.3"/>
<path d="M19.8492 14.301H19.5629C19.3404 14.301 19.1609 14.1188 19.1609 13.8951C19.1609 13.6714 19.3404 13.4892 19.5629 13.4892H19.8492C20.1561 13.4892 20.4042 13.2387 20.4042 12.9289V8.13253L19.1707 5.22496C18.8324 4.42509 18.054 3.90635 17.1921 3.90733H15.4979V13.4892H16.346C16.5676 13.4892 16.748 13.6713 16.748 13.8951C16.748 14.1188 16.5676 14.301 16.346 14.301H15.0968C14.8752 14.301 14.6948 14.1188 14.6948 13.8951V3.50251C14.6948 3.27878 14.8752 3.09662 15.0968 3.09662H17.1921C18.3736 3.09563 19.4433 3.80741 19.908 4.90526L21.1748 7.88987C21.1963 7.94036 21.2071 7.99382 21.2071 8.04926V12.9288C21.2061 13.6851 20.5983 14.299 19.8492 14.301Z" fill="#FF3366" stroke="#FF3366" stroke-width="0.3"/>
<path d="M3.47394 14.301H1.50613C1.28454 14.301 1.1051 14.1189 1.1051 13.8951V9.34838C1.1051 9.12465 1.28453 8.94348 1.50613 8.94348H15.0967C15.3182 8.94348 15.4977 9.12464 15.4977 9.34838C15.4977 9.57211 15.3183 9.75427 15.0967 9.75427H1.90824V13.4893H3.47406C3.69565 13.4893 3.87509 13.6714 3.87509 13.8952C3.87509 14.1189 3.69554 14.301 3.47394 14.301Z" fill="#FF3366" stroke="#FF3366" stroke-width="0.3"/>
<path d="M15.0967 11.4431H1.50613C1.28454 11.4431 1.1051 11.2609 1.1051 11.0372C1.1051 10.8134 1.28453 10.6323 1.50613 10.6323H15.0967C15.3182 10.6323 15.4977 10.8134 15.4977 11.0372C15.4977 11.2609 15.3183 11.4431 15.0967 11.4431Z" fill="#FF3366" stroke="#FF3366" stroke-width="0.3"/>
<path d="M12.1309 14.301H10.4582C10.2366 14.301 10.0562 14.1189 10.0562 13.8951V12.2716C10.0562 12.0479 10.2366 11.8657 10.4582 11.8657H12.1309C12.2368 11.8657 12.3387 11.9083 12.4142 11.9845C12.4897 12.0607 12.5319 12.1637 12.5319 12.2716V13.8951C12.5319 14.003 12.4897 14.106 12.4142 14.1822C12.3387 14.2574 12.2368 14.301 12.1309 14.301ZM10.8602 13.4902H11.7298L11.7289 12.6765H10.8592L10.8602 13.4902Z" fill="#FF3366" stroke="#FF3366" stroke-width="0.3"/>
<path d="M17.9537 15.9247C17.1408 15.9247 16.4084 15.4307 16.0967 14.6724C15.7858 13.9141 15.9574 13.041 16.533 12.4599C17.1075 11.8798 17.9723 11.7065 18.7234 12.0203C19.4744 12.3342 19.9637 13.0747 19.9637 13.8953C19.9627 15.0159 19.0636 15.9237 17.9537 15.9247ZM17.9537 12.6768C17.4654 12.6768 17.0261 12.9738 16.8389 13.4292C16.6526 13.8846 16.7555 14.4092 17.1007 14.7577C17.4458 15.1062 17.9654 15.2101 18.4165 15.021C18.8665 14.8329 19.1606 14.3885 19.1606 13.8955C19.1597 13.2233 18.6204 12.6778 17.9537 12.6768Z" fill="#FF3366" stroke="#FF3366" stroke-width="0.3"/>
<path d="M5.082 15.9247C4.26918 15.9247 3.53578 15.4307 3.22498 14.6724C2.91417 13.9141 3.08576 13.041 3.66032 12.4599C4.23587 11.8798 5.09967 11.7065 5.85072 12.0203C6.60177 12.3342 7.092 13.0747 7.092 13.8953C7.09102 15.0159 6.19191 15.9237 5.082 15.9247ZM5.082 12.6768C4.59373 12.6768 4.15349 12.9738 3.9672 13.4292C3.77993 13.8846 3.88386 14.4092 4.22899 14.7577C4.57413 15.1062 5.09279 15.2101 5.54382 15.021C5.99485 14.8329 6.289 14.3885 6.289 13.8955C6.28802 13.2233 5.74776 12.6778 5.082 12.6768Z" fill="#FF3366" stroke="#FF3366" stroke-width="0.3"/>
<path d="M15.0966 9.75422H0.725736C0.504148 9.75422 0.32373 9.57207 0.32373 9.34833L0.325691 1.41376C0.325691 1.19003 0.505118 1.00787 0.727697 1.00787H13.7994C14.7367 1.00886 15.4966 1.77606 15.4976 2.72345V9.3483C15.4976 9.45621 15.4554 9.55916 15.3799 9.63539C15.3054 9.71161 15.2025 9.75422 15.0966 9.75422ZM1.12784 8.94345H14.6948V2.72358C14.6948 2.22364 14.2938 1.81975 13.7996 1.81877H1.129L1.12784 8.94345Z" fill="#FF3366" stroke="#FF3366" stroke-width="0.3"/>
<path d="M15.0965 14.3009H6.68997C6.46838 14.3009 6.28894 14.1188 6.28894 13.895C6.28894 13.6713 6.46837 13.4891 6.68997 13.4891H15.0965C15.3181 13.4891 15.4976 13.6713 15.4976 13.895C15.4976 14.1188 15.3181 14.3009 15.0965 14.3009Z" fill="#FF3366" stroke="#FF3366" stroke-width="0.3"/>
</svg>
