<?xml version="1.0" encoding="UTF-8"?>
<svg width="25px" height="38px" viewBox="0 0 25 38" version="1.1" xmlns="http://www.w3.org/2000/svg" xmlns:xlink="http://www.w3.org/1999/xlink">
    <!-- Generator: Sketch 55.1 (78136) - https://sketchapp.com -->
    <title>Logo</title>
    <desc>Created with Sketch.</desc>
    <defs>
        <polygon id="path-1" points="0.00731595676 0.110833896 12.1732482 0.110833896 12.1732482 16.9080961 0.00731595676 16.9080961 0.00731595676 0.110833896"></polygon>
    </defs>
    <g id="Maquettes-en-cours-v2" stroke="none" stroke-width="1" fill="none" fill-rule="evenodd">
        <g id="Menu-Profil-Nanny---Mode-partenaire" transform="translate(-70.000000, -15.000000)">
            <g id="Group">
                <g id="Logo" transform="translate(70.000000, 15.000000)">
                    <g id="Group-27" transform="translate(0.000000, 3.441176)" fill="#FFFFFF">
                        <path d="M14.5150781,22.0482403 L10.2844057,22.0482403 C9.68848369,22.0482403 9.20529306,21.5389181 9.20529306,20.9108593 C9.20529306,20.282603 9.68848369,19.7732808 10.2844057,19.7732808 L14.5150781,19.7732808 C15.1110001,19.7732808 15.5941907,20.282603 15.5941907,20.9108593 C15.5941907,21.5389181 15.1110001,22.0482403 14.5150781,22.0482403 M24.7226769,12.6654892 C24.4899348,9.02120743 22.7574525,5.29375089 19.8649978,2.86567855 C18.8033949,3.57296081 17.7775985,4.54359705 16.9751007,5.78786065 C16.3116973,6.81677853 15.7999795,8.08573774 15.477918,9.40151982 C16.1743736,10.1945452 16.6081828,11.2485539 16.6201838,12.4141866 C16.6201838,12.4305845 16.6203806,12.4467848 16.6203806,12.4629852 C16.6205773,14.9368926 14.7312941,16.9498811 12.3841995,16.9769475 C10.0192017,17.0040139 8.08112723,15.00525 8.05535444,12.5123764 C8.02977839,10.0197003 9.92614423,7.97687949 12.291142,7.9498131 C12.737149,7.94467641 13.1680071,8.01204604 13.5736826,8.14066077 C13.9581104,6.82507625 14.5042574,5.57231737 15.1900891,4.5090232 C15.9237283,3.37124707 16.8600085,2.36011002 17.906069,1.52875702 C16.3052049,0.659273996 14.4576303,0.149359047 12.3993484,0.149359047 C5.1174531,0.149359047 0.4122466,6.5255679 0.0201460589,12.6654892 C-0.151606963,15.9108874 0.781918912,19.1142043 2.65290544,21.6983529 L11.475266,34.1147128 C11.9094686,34.7257809 12.7786609,34.7271639 13.2146342,34.1172811 L22.0899175,21.6983529 C23.9607073,19.1142043 24.8944299,15.9108874 24.7226769,12.6654892" id="Fill-25"></path>
                    </g>
                    <g id="Group-30" transform="translate(10.381705, 0.086731)">
                        <mask id="mask-2" fill="white">
                            <use xlink:href="#path-1"></use>
                        </mask>
                        <g id="Clip-29"></g>
                        <path d="M1.5946668,16.9080961 C0.861027606,16.9080961 0.217298067,16.3438508 0.102796053,15.5557645 C-0.347932668,12.4456982 0.814990714,8.6068151 3.21343412,5.2869349 C5.36241265,2.31220054 8.01307526,0.429407261 10.4849023,0.121798747 C11.3141565,0.0194601404 12.0647153,0.642974893 12.1626912,1.51640922 C12.2604704,2.38984354 11.6680897,3.181486 10.8394257,3.28481243 C9.2253801,3.48573591 7.22454593,4.99236567 5.61758295,7.21655106 C3.73400513,9.82381474 2.76545974,12.834901 3.09027559,15.0748916 C3.21618846,15.9441771 2.64958055,16.7567614 1.82465453,16.8897226 C1.74753289,16.9021692 1.670608,16.9080961 1.5946668,16.9080961" id="Fill-28" fill="#FFFFFF" mask="url(#mask-2)"></path>
                    </g>
                </g>
            </g>
        </g>
    </g>
</svg>
