<svg width="26" height="19" viewBox="0 0 26 19" fill="none" xmlns="http://www.w3.org/2000/svg">
<path d="M25.3853 13.7151L23.8716 12.2014C23.7389 12.0687 23.5264 11.989 23.3405 11.989H18.3748V4.92536C18.3748 3.75694 17.4188 2.80096 16.2504 2.80096H12.2937V1.71221C12.2937 0.782785 11.5501 0.0392456 10.6207 0.0392456H8.12454C7.19512 0.0392456 6.45158 0.782785 6.45158 1.71221V2.80096H2.49488C1.32646 2.80096 0.370483 3.75694 0.370483 4.92536V12.8388C0.370483 14.0072 1.32646 14.9632 2.49488 14.9632H6.92957C7.0889 15.9191 7.51378 16.822 8.23076 17.539C9.10707 18.4153 10.2755 18.8933 11.5236 18.8933C13.2231 18.8933 14.7633 17.9639 15.5865 16.5033H16.808C17.0205 16.5033 17.2063 16.4237 17.3391 16.2909L17.7374 15.8926L18.1889 16.3706C18.481 16.6627 18.9855 16.6627 19.2776 16.3706L19.7291 15.9191L20.154 16.3706C20.4195 16.6627 20.9772 16.6892 21.2427 16.3706L21.6676 15.9191L22.1987 16.4768C22.1987 16.5033 22.2252 16.5033 22.2252 16.5033C22.5173 16.7423 22.9157 16.7689 23.2078 16.5299L25.3056 14.8304C25.4649 14.6976 25.5712 14.4852 25.5712 14.2727C25.5977 14.0603 25.5181 13.8478 25.3853 13.7151ZM16.2504 3.94283C16.7815 3.94283 17.2063 4.36771 17.2063 4.89881V11.9359H15.5599C15.2944 11.4579 14.9492 11.0596 14.5508 10.7144V3.94283H16.2504ZM7.59344 1.71221C7.59344 1.4201 7.83244 1.18111 8.12454 1.18111H10.6207C10.9128 1.18111 11.1518 1.4201 11.1518 1.71221V2.80096H7.59344V1.71221ZM4.16785 13.7947H2.49488C1.96378 13.7947 1.5389 13.3699 1.5389 12.8388V4.92536C1.5389 4.39426 1.96378 3.96938 2.49488 3.96938H4.16785V13.7947ZM5.33627 3.94283H13.409V9.99737C12.8248 9.73182 12.1609 9.59904 11.497 9.59904C10.2489 9.59904 9.08052 10.077 8.20421 10.9533C7.43411 11.7234 6.95612 12.7325 6.8499 13.8213H5.30971V3.94283H5.33627ZM22.7829 15.388L22.0925 14.671C21.9862 14.5648 21.8269 14.4852 21.6676 14.4852C21.5083 14.4852 21.3489 14.5383 21.2427 14.671L20.6851 15.2553L20.1274 14.671C19.915 14.4321 19.5166 14.4321 19.3042 14.671L18.7465 15.2553L18.1889 14.671C18.0827 14.5648 17.9233 14.4852 17.764 14.4852C17.6047 14.4852 17.4719 14.5383 17.3391 14.671L16.6487 15.388H15.2413C15.0023 15.388 14.8164 15.5208 14.7102 15.7332C14.1525 16.9813 12.9044 17.778 11.5236 17.778C10.5942 17.778 9.71784 17.4062 9.05397 16.7423C8.39009 16.0785 8.01832 15.2021 8.01832 14.2727C8.01832 13.3433 8.39009 12.467 9.05397 11.8031C9.71784 11.1392 10.5942 10.7675 11.5236 10.7675C12.9044 10.7675 14.1525 11.5641 14.7102 12.8122C14.8164 13.0246 15.0023 13.1574 15.2413 13.1574H23.1812L24.27 14.2462L22.7829 15.388Z" fill="#FF3366"/>
<path d="M10.5147 12.4936C9.61183 12.4936 8.86829 13.2637 8.86829 14.2197C8.86829 15.1756 9.61183 15.9457 10.5147 15.9457C11.4176 15.9457 12.1611 15.1756 12.1611 14.2197C12.1611 13.2902 11.4176 12.4936 10.5147 12.4936ZM10.5147 14.8039C10.2491 14.8039 10.0102 14.5383 10.0102 14.2197C10.0102 13.901 10.2226 13.6355 10.5147 13.6355C10.7802 13.6355 11.0192 13.901 11.0192 14.2197C11.0192 14.5383 10.7802 14.8039 10.5147 14.8039Z" fill="#FF3366"/>
</svg>
